<svg version="1.1" xmlns="http://www.w3.org/2000/svg" xmlns:xlink="http://www.w3.org/1999/xlink" width="24" height="24" viewBox="0,0,256,256"><g fill="#349c3b" fill-rule="nonzero" stroke="none" stroke-width="1" stroke-linecap="butt" stroke-linejoin="miter" stroke-miterlimit="10" stroke-dasharray="" stroke-dashoffset="0" font-family="none" font-weight="none" font-size="none" text-anchor="none" style="mix-blend-mode: normal"><g transform="translate(-0.0016,0.0016)"><g><g transform="translate(0,256) scale(0.26667,0.26667)"><path d="M280,-420c16.66667,0 30.83333,-5.83333 42.5,-17.5c11.66667,-11.66667 17.5,-25.83333 17.5,-42.5c0,-16.66667 -5.83333,-30.83333 -17.5,-42.5c-11.66667,-11.66667 -25.83333,-17.5 -42.5,-17.5c-16.66667,0 -30.83333,5.83333 -42.5,17.5c-11.66667,11.66667 -17.5,25.83333 -17.5,42.5c0,16.66667 5.83333,30.83333 17.5,42.5c11.66667,11.66667 25.83333,17.5 42.5,17.5zM480,-420c16.66667,0 30.83333,-5.83333 42.5,-17.5c11.66667,-11.66667 17.5,-25.83333 17.5,-42.5c0,-16.66667 -5.83333,-30.83333 -17.5,-42.5c-11.66667,-11.66667 -25.83333,-17.5 -42.5,-17.5c-16.66667,0 -30.83333,5.83333 -42.5,17.5c-11.66667,11.66667 -17.5,25.83333 -17.5,42.5c0,16.66667 5.83333,30.83333 17.5,42.5c11.66667,11.66667 25.83333,17.5 42.5,17.5zM680,-420c16.66667,0 30.83333,-5.83333 42.5,-17.5c11.66667,-11.66667 17.5,-25.83333 17.5,-42.5c0,-16.66667 -5.83333,-30.83333 -17.5,-42.5c-11.66667,-11.66667 -25.83333,-17.5 -42.5,-17.5c-16.66667,0 -30.83333,5.83333 -42.5,17.5c-11.66667,11.66667 -17.5,25.83333 -17.5,42.5c0,16.66667 5.83333,30.83333 17.5,42.5c11.66667,11.66667 25.83333,17.5 42.5,17.5zM480,-80c-55.33333,0 -107.33333,-10.5 -156,-31.5c-48.66667,-21 -91,-49.5 -127,-85.5c-36,-36 -64.5,-78.33333 -85.5,-127c-21,-48.66667 -31.5,-100.66667 -31.5,-156c0,-55.33333 10.5,-107.33333 31.5,-156c21,-48.66667 49.5,-91 85.5,-127c36,-36 78.33333,-64.5 127,-85.5c48.66667,-21 100.66667,-31.5 156,-31.5c55.33333,0 107.33333,10.5 156,31.5c48.66667,21 91,49.5 127,85.5c36,36 64.5,78.33333 85.5,127c21,48.66667 31.5,100.66667 31.5,156c0,55.33333 -10.5,107.33333 -31.5,156c-21,48.66667 -49.5,91 -85.5,127c-36,36 -78.33333,64.5 -127,85.5c-48.66667,21 -100.66667,31.5 -156,31.5zM480,-160c89.33333,0 165,-31 227,-93c62,-62 93,-137.66667 93,-227c0,-89.33333 -31,-165 -93,-227c-62,-62 -137.66667,-93 -227,-93c-89.33333,0 -165,31 -227,93c-62,62 -93,137.66667 -93,227c0,89.33333 31,165 93,227c62,62 137.66667,93 227,93zM480,-480z"></path></g></g></g></g></svg>